Coordinates
nRows=7
nColumns=24

# SIMM Motion File Header:
name Coordinates
datacolumns 24
datarows 7
otherdata 1
range 0.59133000000000002000 0.59733000000000003000

Units are S.I. units (second, meters, Newtons, ...)
Angles are in degrees.

endheader
time	pelvis_tx	pelvis_ty	pelvis_tz	pelvis_tilt	pelvis_list	pelvis_rotation	hip_flexion_r	hip_adduction_r	hip_rotation_r	knee_angle_r	ankle_angle_r	subtalar_angle_r	mtp_angle_r	hip_flexion_l	hip_adduction_l	hip_rotation_l	knee_angle_l	ankle_angle_l	subtalar_angle_l	mtp_angle_l	lumbar_extension	lumbar_bending	lumbar_rotation
      0.59133000000000002000	      1.12022998752969260000	      0.85200664947481053000	     -0.33112574361938230000	     -4.55245234361954500000	     -2.37399314725502550000	     11.66977250512495000000	     29.38945325703451800000	     -2.04530910148018700000	      8.65601375763623970000	    -13.10327597067031900000	     -6.90454832183049040000	      0.00000000000001260673	     -0.00000000000001966157	     -7.03981669681239540000	     -3.65266851200009190000	     15.79957346655099600000	    -25.24037303827147800000	      6.12434985637565980000	     -0.00000000000019967887	      0.00000000000002672793	     -4.91910635157702010000	      2.19800607515627580000	     -5.49570773716274720000
      0.59233000000000002000	      1.12161293244675300000	      0.85210460717290926000	     -0.33094305132466861000	     -4.53484780239036400000	     -2.40040491667765510000	     11.66125774808987000000	     29.37806298194021400000	     -1.99061058978681090000	      8.61506245548240910000	    -13.26529202488164000000	     -6.89647465906663900000	      0.00000000000001305042	     -0.00000000000001987901	     -6.99972929235915050000	     -3.73548771803540540000	     15.80954338866779100000	    -25.44554242058347200000	      5.77197563743867640000	     -0.00000000000020028747	      0.00000000000002854859	     -4.92535435508698520000	      2.21920902422157210000	     -5.47359961244453250000
      0.59333000000000002000	      1.12299612680729080000	      0.85220595161064894000	     -0.33075927663282523000	     -4.51691011104778890000	     -2.42660143525737570000	     11.65223061003416300000	     29.36588015918008000000	     -1.93609790026968940000	      8.57210610482598940000	    -13.42719146617401000000	     -6.88505952024379210000	      0.00000000000001350677	     -0.00000000000002009795	     -6.95841937526369760000	     -3.81817084041052720000	     15.81849026803899800000	    -25.65180252202040700000	      5.41188861014617120000	     -0.00000000000020091241	      0.00000000000003041484	     -4.93207677336213470000	      2.24020420305676640000	     -5.45121535775863380000
      0.59433000000000002000	      1.12437949769728500000	      0.85231061504058026000	     -0.33057449241362113000	     -4.49864186251048090000	     -2.45257072786460070000	     11.64269505756510100000	     29.35288868517594100000	     -1.88179580353071540000	      8.52712827652807450000	    -13.58892996177169700000	     -6.87028024681458760000	      0.00000000000001397265	     -0.00000000000002033643	     -6.91587494813279240000	     -3.90069035074634880000	     15.82638134197412000000	    -25.85915373748057200000	      5.04415815755092020000	     -0.00000000000020153523	      0.00000000000003231398	     -4.93927583556337790000	      2.26098737948586330000	     -5.42855968574235440000
      0.59533000000000003000	      1.12576297052803900000	      0.85241852907203830000	     -0.33038877223739732000	     -4.48004620530105150000	     -2.47830101770918400000	     11.63265512198389800000	     29.33907297488787000000	     -1.82772859570563000000	      8.48011372737915360000	    -13.75046361618976400000	     -6.85211774081065170000	      0.00000000000001442049	     -0.00000000000002056535	     -6.87208402326699550000	     -3.98301851653751760000	     15.83318469070158200000	    -26.06759647886224600000	      4.66886263361626060000	     -0.00000000000020215498	      0.00000000000003422764	     -4.94695308592851650000	      2.28155444328154820000	     -5.40563705702635570000
      0.59633000000000003000	      1.12714646912542160000	      0.85252962455582815000	     -0.33020219023131242000	     -4.46112684098246510000	     -2.50378073552271240000	     11.62211490054446400000	     29.32441795230181500000	     -1.77392007495805460000	      8.43104846578149920000	    -13.91174895707621500000	     -6.83055648860477940000	      0.00000000000001488615	     -0.00000000000002079663	     -6.82703466153167860000	     -4.06512741614411510000	     15.83886930138499900000	    -26.27713114758426700000	      4.28608939864607840000	     -0.00000000000020278742	      0.00000000000003617943	     -4.95510938769882790000	      2.30190139112870140000	     -5.38245166150600430000
      0.59733000000000003000	      1.12852991581900650000	      0.85264383147008238000	     -0.33001482093438683000	     -4.44188802172820640000	     -2.52899852913793530000	     11.61107855738485900000	     29.30890904143155100000	     -1.72039351723328140000	      8.37991981737426710000	    -14.07274292205961400000	     -6.80558459201152570000	      0.00000000000001527645	     -0.00000000000002098510	     -6.78071501117892340000	     -4.14698895421759590000	     15.84340513145965300000	    -26.48775810695859400000	      3.89593485072917070000	     -0.00000000000020340678	      0.00000000000003808058	     -4.96374492695776850000	      2.32202431197429430000	     -5.35900739908462940000
